<svg width="15" height="15" viewBox="0 0 15 15" fill="none" xmlns="http://www.w3.org/2000/svg">
<path fill-rule="evenodd" clip-rule="evenodd" d="M0.125 1.14039C0.125 0.57703 0.581358 0.120361 1.14433 0.120361H13.8551C14.4181 0.120361 14.8745 0.57703 14.8745 1.14039V13.8599C14.8745 14.4232 14.4181 14.8799 13.8551 14.8799H1.14433C0.581358 14.8799 0.125 14.4232 0.125 13.8599V1.14039ZM1.14433 0.618657C0.856372 0.618657 0.622957 0.852231 0.622957 1.14039V13.8599C0.622957 14.148 0.856372 14.3816 1.14433 14.3816H13.8551C14.1431 14.3816 14.3765 14.148 14.3765 13.8599V1.14039C14.3765 0.852231 14.1431 0.618657 13.8551 0.618657H1.14433Z" fill="white"/>
<path fill-rule="evenodd" clip-rule="evenodd" d="M0 1.14027C0 0.515264 0.507581 0 1.14459 0H13.8554C14.4924 0 15 0.515264 15 1.14027V13.8597C15 14.4847 14.4924 15 13.8554 15H1.14459C0.507581 15 0 14.4847 0 13.8597V1.14027ZM1.14459 0.240481C0.655657 0.240481 0.250522 0.638555 0.250522 1.14027V13.8597C0.250522 14.3614 0.655657 14.7595 1.14459 14.7595H13.8554C14.3443 14.7595 14.7495 14.3614 14.7495 13.8597V1.14027C14.7495 0.638555 14.3443 0.240481 13.8554 0.240481H1.14459ZM1.14459 0.738777C0.930671 0.738777 0.748479 0.913756 0.748479 1.14027V13.8597C0.748479 14.0862 0.930671 14.2612 1.14459 14.2612H13.8554C14.0693 14.2612 14.2515 14.0862 14.2515 13.8597V1.14027C14.2515 0.913756 14.0693 0.738777 13.8554 0.738777H1.14459ZM0.497957 1.14027C0.497957 0.790465 0.782595 0.498296 1.14459 0.498296H13.8554C14.2174 0.498296 14.502 0.790465 14.502 1.14027V13.8597C14.502 14.2095 14.2174 14.5017 13.8554 14.5017H1.14459C0.782595 14.5017 0.497957 14.2095 0.497957 13.8597V1.14027Z" fill="white"/>
<path fill-rule="evenodd" clip-rule="evenodd" d="M7.48438 6.59787C6.98204 6.59787 6.57481 7.00181 6.57481 7.50009C6.57481 7.99837 6.98204 8.40231 7.48438 8.40231C7.98672 8.40231 8.39395 7.99837 8.39395 7.50009C8.39395 7.00181 7.98672 6.59787 7.48438 6.59787ZM6.0752 7.50009C6.0752 6.72811 6.70611 6.10229 7.48438 6.10229C8.26265 6.10229 8.89357 6.72811 8.89357 7.50009C8.89357 8.27207 8.26265 8.89789 7.48438 8.89789C6.70611 8.89789 6.0752 8.27207 6.0752 7.50009Z" fill="white"/>
<path fill-rule="evenodd" clip-rule="evenodd" d="M5.99707 7.50005C5.99707 6.6889 6.66064 6.0271 7.48454 6.0271C8.30845 6.0271 8.97202 6.6889 8.97202 7.50005C8.97202 8.31119 8.30845 8.97299 7.48454 8.97299C6.66064 8.97299 5.99707 8.31119 5.99707 7.50005ZM7.48454 6.1774C6.75191 6.1774 6.15365 6.76723 6.15365 7.50005C6.15365 8.23286 6.75191 8.82269 7.48454 8.82269C8.21718 8.82269 8.81544 8.23286 8.81544 7.50005C8.81544 6.76723 8.21718 6.1774 7.48454 6.1774ZM7.48454 6.67298C7.02784 6.67298 6.65326 7.04093 6.65326 7.50005C6.65326 7.95916 7.02784 8.32711 7.48454 8.32711C7.94125 8.32711 8.31583 7.95916 8.31583 7.50005C8.31583 7.04093 7.94125 6.67298 7.48454 6.67298ZM6.49669 7.50005C6.49669 6.9626 6.93657 6.52268 7.48454 6.52268C8.03252 6.52268 8.4724 6.9626 8.4724 7.50005C8.4724 8.03749 8.03252 8.47741 7.48454 8.47741C6.93657 8.47741 6.49669 8.03749 6.49669 7.50005Z" fill="white"/>
<path fill-rule="evenodd" clip-rule="evenodd" d="M7.48392 1.65332C7.62228 1.65332 7.73444 1.76485 7.73444 1.90242V6.33408C7.73444 6.47165 7.62228 6.58318 7.48392 6.58318C7.34556 6.58318 7.2334 6.47165 7.2334 6.33408V1.90242C7.2334 1.76485 7.34556 1.65332 7.48392 1.65332Z" fill="white"/>
<path fill-rule="evenodd" clip-rule="evenodd" d="M7.15527 1.90237C7.15527 1.72581 7.29991 1.57812 7.48408 1.57812C7.66826 1.57812 7.81289 1.72581 7.81289 1.90237V6.33404C7.81289 6.5106 7.66826 6.65829 7.48408 6.65829C7.29991 6.65829 7.15527 6.5106 7.15527 6.33404V1.90237ZM7.48408 1.72843C7.39154 1.72843 7.31185 1.80379 7.31185 1.90237V6.33404C7.31185 6.43262 7.39154 6.50798 7.48408 6.50798C7.57663 6.50798 7.65632 6.43262 7.65632 6.33404V1.90237C7.65632 1.80379 7.57663 1.72843 7.48408 1.72843Z" fill="white"/>
<path fill-rule="evenodd" clip-rule="evenodd" d="M8.29786 7.94547C8.36367 7.82509 8.51539 7.78042 8.63672 7.84572L13.0219 10.2054C13.1433 10.2707 13.1883 10.4212 13.1225 10.5416C13.0567 10.662 12.9049 10.7066 12.7836 10.6413L8.3984 8.28167C8.27706 8.21637 8.23205 8.06585 8.29786 7.94547Z" fill="white"/>
<path fill-rule="evenodd" clip-rule="evenodd" d="M8.22867 7.91057C8.31432 7.75389 8.51414 7.69355 8.67514 7.78018L13.0603 10.1399C13.2198 10.2256 13.2768 10.4212 13.1919 10.5765C13.1063 10.7332 12.9065 10.7935 12.7455 10.7069L8.36026 8.34724C8.20083 8.26145 8.14376 8.0659 8.22867 7.91057ZM8.59858 7.91129C8.5169 7.86734 8.41329 7.89631 8.36732 7.98041C8.32061 8.06585 8.35357 8.17134 8.43682 8.21613L12.822 10.5758C12.9037 10.6198 13.0073 10.5908 13.0533 10.5067C13.1 10.4213 13.067 10.3158 12.9838 10.271L8.59858 7.91129Z" fill="white"/>
</svg>
