<svg width="18" height="18" viewBox="0 0 18 18" fill="none" xmlns="http://www.w3.org/2000/svg">
<path d="M6.45833 16.623H2.01389C1.52297 16.623 1.125 16.2157 1.125 15.7132V8.81147C1.125 8.57018 1.21865 8.33872 1.38535 8.16813L8.49647 0.889533C8.84358 0.534218 9.40642 0.534218 9.75353 0.889533L16.8646 8.16813C17.0313 8.33872 17.125 8.57018 17.125 8.81147V15.7132C17.125 16.2157 16.727 16.623 16.2361 16.623H11.7917M6.45833 16.623H11.7917M6.45833 16.623V11.1641C6.45833 10.6616 6.85631 10.2543 7.34722 10.2543H10.9028C11.3937 10.2543 11.7917 10.6616 11.7917 11.1641V16.623" stroke="#DC3E22" stroke-linejoin="round"/>
</svg>
