<svg width="24" height="24" viewBox="0 0 24 24" fill="none" xmlns="http://www.w3.org/2000/svg">
  <path
    d="M21.7091 8.46569C19.5382 8.46569 18.6507 6.83838 19.7301 4.84239C20.3538 3.68547 19.982 2.21073 18.8906 1.54963L16.8156 0.29101C15.8681 -0.306517 14.6447 0.0494567 14.081 1.05381L13.949 1.29536C12.8696 3.29136 11.0945 3.29136 10.003 1.29536L9.87106 1.05381C9.33133 0.0494567 8.10795 -0.306517 7.16042 0.29101L5.08546 1.54963C3.994 2.21073 3.62219 3.69819 4.24588 4.8551C5.33733 6.83838 4.44978 8.46569 2.27886 8.46569C1.03148 8.46569 0 9.54632 0 10.8812V13.1188C0 14.441 1.01949 15.5343 2.27886 15.5343C4.44978 15.5343 5.33733 17.1616 4.24588 19.1576C3.62219 20.3145 3.994 21.7893 5.08546 22.4504L7.16042 23.709C8.10795 24.3065 9.33133 23.9505 9.89505 22.9462L10.027 22.7046C11.1064 20.7086 12.8816 20.7086 13.973 22.7046L14.1049 22.9462C14.6687 23.9505 15.8921 24.3065 16.8396 23.709L18.9145 22.4504C20.006 21.7893 20.3778 20.3018 19.7541 19.1576C18.6627 17.1616 19.5502 15.5343 21.7211 15.5343C22.9685 15.5343 24 14.4537 24 13.1188V10.8812C23.988 9.55904 22.9685 8.46569 21.7091 8.46569ZM11.994 16.1318C9.84708 16.1318 8.09595 14.2757 8.09595 12C8.09595 9.72431 9.84708 7.86816 11.994 7.86816C14.1409 7.86816 15.8921 9.72431 15.8921 12C15.8921 14.2757 14.1409 16.1318 11.994 16.1318Z" />
</svg>