<svg width="13" height="16" viewBox="0 0 13 16" fill="none" xmlns="http://www.w3.org/2000/svg">
  <path
    d="M11.8122 10.936L7.83247 8H5.16289L1.18314 10.936C0.0699927 11.752 -0.294489 13.008 0.247308 14.144C0.789104 15.272 2.10912 16 3.59659 16H9.39875C10.8961 16 12.2062 15.272 12.748 14.144C13.2898 13.008 12.9254 11.752 11.8122 10.936ZM8.29546 12.912H4.70975C4.33541 12.912 4.03988 12.664 4.03988 12.368C4.03988 12.072 4.34526 11.824 4.70975 11.824H8.29546C8.66979 11.824 8.96531 12.072 8.96531 12.368C8.96531 12.664 8.65994 12.912 8.29546 12.912Z" />
  <path
    d="M12.7588 1.856C12.217 0.728 10.897 0 9.40956 0H3.59761C2.11013 0 0.790118 0.728 0.248322 1.856C-0.283624 2.992 0.0808575 4.248 1.194 5.064L5.17369 8H7.84327L11.823 5.064C12.9263 4.248 13.2908 2.992 12.7588 1.856ZM8.29641 4.184H4.7107C4.33642 4.184 4.0409 3.936 4.0409 3.64C4.0409 3.344 4.34627 3.096 4.7107 3.096H8.29641C8.67074 3.096 8.96627 3.344 8.96627 3.64C8.96627 3.936 8.66089 4.184 8.29641 4.184Z" />
</svg>