<svg width="14" height="16" viewBox="0 0 14 16" fill="none" xmlns="http://www.w3.org/2000/svg">
  <path fill-rule="evenodd" clip-rule="evenodd"
    d="M7 1.81812C3.13585 1.81812 0 4.99469 0 8.90902C0 12.8234 3.13585 15.9999 7 15.9999C10.8641 15.9999 14 12.8234 14 8.90902C14 4.99469 10.8641 1.81812 7 1.81812ZM7.53846 5.27266C7.53846 4.97142 7.29737 4.72721 7 4.72721C6.70263 4.72721 6.46154 4.97142 6.46154 5.27266V8.90902C6.46154 9.21026 6.70263 9.45448 7 9.45448C7.29737 9.45448 7.53846 9.21026 7.53846 8.90902V5.27266Z" />
  <path fill-rule="evenodd" clip-rule="evenodd"
    d="M4.30786 0.545455C4.30786 0.846699 4.54894 1.09091 4.84632 1.09091H9.15401C9.45139 1.09091 9.69248 0.846699 9.69248 0.545455C9.69248 0.244212 9.45139 0 9.15401 0L4.84632 7.3693e-07C4.54894 7.3693e-07 4.30786 0.244212 4.30786 0.545455Z" />
</svg>