<svg width="247" height="257" viewBox="0 0 247 257" fill="none" xmlns="http://www.w3.org/2000/svg">
  <g id="tomato-main">
    <g id="tomato">
      <path id="Vector"
        d="M202.094 41.7433C228.955 64.0999 246.027 97.6346 246.027 135.115C246.027 202.43 190.951 257.003 123.018 257.003C55.0759 257.003 0 202.43 0 135.115C0 97.2443 17.4282 63.4105 44.7687 41.0539C55.4546 32.3196 67.6556 30.3813 80.924 30.6263L165.235 30.8177C178.797 30.6494 191.238 32.7103 202.094 41.7433Z"
        fill="#DC3E22" />
      <path id="Vector_2"
        d="M63.4027 135.115C63.4027 102.856 76.0548 73.5316 96.702 51.7295L56.5214 67.9308L80.924 30.6263C67.6557 30.3813 55.4546 32.3196 44.7687 41.0539C17.4282 63.4105 3.48072e-09 97.2438 3.48072e-09 135.115C-0.000505572 202.43 55.0754 257.003 123.017 257.003C133.979 257.003 144.603 255.575 154.717 252.909C102.142 239.052 63.4027 191.569 63.4027 135.115Z"
        fill="#C2371F" />
    </g>
    <g id="list">
      <path id="Vector_3"
        d="M60.8606 102.316H83.8346C85.1028 102.316 86.132 101.286 86.132 100.015C86.132 98.7441 85.1028 97.7129 83.8346 97.7129H60.8606C59.5924 97.7129 58.5632 98.7441 58.5632 100.015C58.5632 101.286 59.5924 102.316 60.8606 102.316ZM49.3736 113.825H72.3476C73.6158 113.825 74.645 112.795 74.645 111.523C74.645 110.253 73.6158 109.221 72.3476 109.221H49.3736C48.1054 109.221 47.0762 110.253 47.0762 111.523C47.0762 112.795 48.1054 113.825 49.3736 113.825ZM74.645 134.54C74.645 133.27 73.6158 132.238 72.3476 132.238H49.3736C48.1054 132.238 47.0762 133.27 47.0762 134.54C47.0762 135.811 48.1054 136.842 49.3736 136.842H72.3476C73.6158 136.842 74.645 135.811 74.645 134.54ZM84.9833 143.747H62.0093C60.7411 143.747 59.7119 144.778 59.7119 146.049C59.7119 147.319 60.7411 148.35 62.0093 148.35H84.9833C86.2515 148.35 87.2807 147.319 87.2807 146.049C87.2807 144.778 86.2515 143.747 84.9833 143.747ZM52.8197 120.73C51.5515 120.73 50.5223 121.761 50.5223 123.032C50.5223 124.303 51.5515 125.333 52.8197 125.333H78.0911C79.3593 125.333 80.3885 124.303 80.3885 123.032C80.3885 121.761 79.3593 120.73 78.0911 120.73H52.8197Z"
        fill="white" />
    </g>
    <g id="timer">
      <path id="Ellipse 4"
        d="M193.9 128.838C193.9 142.892 182.507 154.284 168.454 154.284C154.4 154.284 143.008 142.892 143.008 128.838C143.008 114.785 154.4 103.393 168.454 103.393C182.507 103.393 193.9 114.785 193.9 128.838Z"
        fill="white" />
      <path id="Vector_4"
        d="M170.47 127.901V116.741C170.47 115.894 169.744 115.207 168.851 115.207C167.957 115.207 167.232 115.894 167.232 116.741V127.901C166.27 128.433 165.613 129.411 165.613 130.543C165.613 132.237 167.063 133.61 168.851 133.61C170.639 133.61 172.088 132.237 172.088 130.543C172.088 129.41 171.432 128.433 170.47 127.901Z"
        fill="#E74C3C" />
      <path id="Shape"
        d="M143.008 128.822C143.008 142.887 154.411 154.315 168.445 154.315C182.479 154.315 193.882 142.887 193.882 128.822C193.882 121.839 191.056 115.441 186.475 110.85L188.473 108.848L189.399 109.776C189.789 110.166 190.276 110.362 190.812 110.362C191.348 110.362 191.835 110.166 192.225 109.776C193.005 108.994 193.005 107.725 192.225 106.943L187.596 102.304C186.816 101.522 185.549 101.522 184.77 102.304C183.99 103.085 183.99 104.355 184.77 105.136L185.695 106.064L183.503 108.262C179.799 105.527 175.365 103.818 170.492 103.427V101.718H174.926C176.047 101.718 176.924 100.838 176.924 99.7152C176.924 98.592 176.047 97.7129 174.926 97.7129H161.769C160.648 97.7129 159.771 98.592 159.771 99.7152C159.771 100.838 160.648 101.718 161.769 101.718H166.496V103.427C153.339 104.452 143.008 115.441 143.008 128.822ZM168.445 107.334C180.286 107.334 189.935 117.004 189.935 128.871C189.935 140.739 180.286 150.408 168.445 150.408C156.604 150.408 146.955 140.739 146.955 128.871C146.955 116.955 156.604 107.334 168.445 107.334Z"
        fill="#333333" />
    </g>
    <g id="tail">
      <path id="Vector_5"
        d="M159.802 46.5668C154.733 43.1183 146.531 39.9113 140.423 38.9738C143.78 36.9854 144.455 36.9198 148.66 35.5281C159.433 31.9653 175.391 31.6373 175.391 31.6373C175.391 31.6373 156.556 25.1338 142.785 25.5419C139.278 25.6449 135.58 26.4723 132.013 27.6449C134.024 25.7482 135.931 23.8623 137.149 22.4455C140.878 18.1136 144.796 12.6562 144.796 12.6562C144.796 12.6562 130.356 13.1714 123.658 18.5272C121.114 20.5617 119.194 23.1467 117.789 25.5717C115.293 23.6562 112.539 21.9505 109.783 20.619C96.0089 13.959 73.9997 15.3999 73.9997 15.3999C73.9997 15.3999 90.6259 21.7009 98.1064 27.9867C101.027 30.4414 103.991 31.5766 105.763 34.3289C99.6385 33.4429 85.8189 33.7457 79.0351 35.4261C61.6032 39.7454 54.0918 57.1249 54.0918 57.1249C54.0918 57.1249 71.1025 49.2918 94.2472 43.7961C99.336 42.5882 104.716 42.2683 109.405 42.3234C107.277 44.5386 104.951 47.4153 103.192 50.8074C98.91 59.066 104.568 78.7205 104.568 78.7205C104.568 78.7205 116.962 67.0975 122.012 57.682C124.604 52.8489 125.246 47.9964 125.259 44.4156C129.856 45.7782 135.27 47.7684 139.315 49.4901C160.031 58.3081 169.942 74.4069 169.942 74.4069C169.942 74.4069 172.829 55.4298 159.802 46.5668Z"
        fill="#899441" />
      <path id="left-tail"
        d="M117.024 45.0812C116.959 45.0812 116.893 45.0801 116.827 45.079C112.731 45.008 109.496 42.7332 109.596 39.9985C109.604 39.7617 109.962 23.1097 96.1157 15.8693C92.8862 14.1806 92.3159 11.0626 94.8435 8.90389C97.3727 6.74629 102.04 6.36528 105.269 8.05505C125.07 18.4068 124.479 39.3627 124.445 40.2498C124.339 42.944 121.035 45.0812 117.024 45.0812Z"
        fill="#A8B64F" />
      <path id="right-tail" style="visibility: hidden"
        d="M115.29 44.0533C115.351 44.0779 115.228 44.0298 115.29 44.0533C111.083 43.8342 109.095 39.1726 110.165 36.6537C110.257 36.4356 116.535 21.0083 106.186 9.30235C103.772 6.57213 104.352 3.45596 107.484 2.34168C110.617 1.22907 115.112 2.53912 117.526 5.27037C132.326 22.008 125.475 40.4438 123.946 42.1892C120.896 44.0538 119.496 44.2725 115.29 44.0533Z"
        fill="#A8B64F" />
    </g>
    <g id="smiledMouth">
      <path id="Vector (Stroke)" fill-rule="evenodd" clip-rule="evenodd"
        d="M89.182 194.357H155.877L156.133 196.175C156.814 201.017 155.883 208.239 150.936 214.413C145.94 220.647 137.097 225.512 122.542 226.044C122.538 226.044 122.534 226.044 122.529 226.044C122.525 226.044 122.521 226.045 122.517 226.045C107.962 225.513 99.1184 220.647 94.1226 214.413C89.1753 208.239 88.2444 201.017 88.9261 196.175L89.182 194.357ZM122.529 221.816C136.085 221.291 143.604 216.806 147.639 211.771C151.146 207.394 152.206 202.375 152.099 198.583H92.9602C92.8525 202.375 93.913 207.394 97.4198 211.771C101.455 216.806 108.974 221.291 122.529 221.816Z"
        fill="#333333" />
    </g>
    <g id="roundMouth" style="visibility: hidden">
      <path id="Ellipse 5 (Stroke)" fill-rule="evenodd" clip-rule="evenodd"
        d="M132.499 220.879C135.392 216.7 137.317 210.697 137.317 203.864C137.317 197.031 135.392 191.028 132.499 186.849C129.595 182.654 126.001 180.626 122.529 180.626C119.057 180.626 115.463 182.654 112.558 186.849C109.665 191.028 107.741 197.031 107.741 203.864C107.741 210.697 109.665 216.7 112.558 220.879C115.463 225.074 119.057 227.102 122.529 227.102C126.001 227.102 129.595 225.074 132.499 220.879ZM122.529 231.327C133.03 231.327 141.542 219.032 141.542 203.864C141.542 188.696 133.03 176.4 122.529 176.4C112.028 176.4 103.516 188.696 103.516 203.864C103.516 219.032 112.028 231.327 122.529 231.327Z"
        fill="#333333" />
    </g>
  </g>
  <animate href="#smiledMouth" id="smiled-mouth" attributename="visibility" from="visible"
    to="hidden" dur="1s" repeatCount="indefinite" />
  <animate href="#roundMouth" id="round-mouth" attributename="visibility" from="hidden" to="visible"
    dur="1s" repeatCount="indefinite" />
  <animate href="#left-tail" attributename="visibility" from="visible" to="hidden" dur="3s"
    repeatCount="indefinite" />
  <animate href='#right-tail' attributename="visibility" from="hidden" to="visible" dur="3s"
    repeatCount="indefinite" />
</svg>