<svg width="234" height="244" viewBox="0 0 234 244" fill="none" xmlns="http://www.w3.org/2000/svg">
<path d="M192.273 40.2113C217.703 61.3765 233.866 93.1241 233.866 128.607C233.866 192.335 181.725 244 117.411 244C53.0901 244 0.949219 192.335 0.949219 128.608C0.949219 92.7547 17.4487 60.7239 43.3322 39.5587C53.4486 31.2898 64.9995 29.4549 77.5607 29.6868L157.379 29.8679C170.218 29.7086 181.996 31.6597 192.273 40.2113Z" fill="#DC3E22"/>
<path d="M60.9732 128.608C60.9732 98.0674 72.951 70.3056 92.4979 49.6654L54.4585 65.0033L77.5607 29.6868C64.9995 29.4549 53.4486 31.2898 43.3322 39.5587C17.4487 60.7239 0.949219 92.7542 0.949219 128.608C0.94874 192.335 53.0896 244 117.411 244C127.789 244 137.846 242.648 147.422 240.124C97.648 227.006 60.9732 182.053 60.9732 128.608Z" fill="#C2371F"/>
<path d="M58.5655 97.5553H80.3152C81.5158 97.5553 82.4901 96.5802 82.4901 95.3763C82.4901 94.1735 81.5158 93.1973 80.3152 93.1973H58.5655C57.3649 93.1973 56.3905 94.1735 56.3905 95.3763C56.3905 96.5802 57.3649 97.5553 58.5655 97.5553ZM47.6906 108.451H69.4403C70.6409 108.451 71.6153 107.475 71.6153 106.271C71.6153 105.069 70.6409 104.092 69.4403 104.092H47.6906C46.49 104.092 45.5156 105.069 45.5156 106.271C45.5156 107.475 46.49 108.451 47.6906 108.451ZM71.6153 128.062C71.6153 126.859 70.6409 125.883 69.4403 125.883H47.6906C46.49 125.883 45.5156 126.859 45.5156 128.062C45.5156 129.265 46.49 130.241 47.6906 130.241H69.4403C70.6409 130.241 71.6153 129.265 71.6153 128.062ZM81.4027 136.778H59.6529C58.4524 136.778 57.478 137.754 57.478 138.957C57.478 140.16 58.4524 141.136 59.6529 141.136H81.4027C82.6032 141.136 83.5776 140.16 83.5776 138.957C83.5776 137.754 82.6032 136.778 81.4027 136.778ZM50.9531 114.988C49.7525 114.988 48.7781 115.964 48.7781 117.167C48.7781 118.371 49.7525 119.346 50.9531 119.346H74.8777C76.0783 119.346 77.0527 118.371 77.0527 117.167C77.0527 115.964 76.0783 114.988 74.8777 114.988H50.9531Z" fill="white"/>
<circle cx="160.426" cy="122.664" r="24.0899" fill="white"/>
<path d="M162.334 121.776V111.211C162.334 110.409 161.647 109.759 160.801 109.759C159.955 109.759 159.269 110.409 159.269 111.211V121.776C158.358 122.28 157.736 123.206 157.736 124.277C157.736 125.881 159.109 127.181 160.801 127.181C162.494 127.181 163.866 125.881 163.866 124.277C163.866 123.205 163.245 122.28 162.334 121.776Z" fill="#E74C3C"/>
<path d="M136.336 122.649C136.336 135.964 147.131 146.783 160.418 146.783C173.704 146.783 184.499 135.964 184.499 122.649C184.499 116.037 181.823 109.98 177.487 105.634L179.378 103.739L180.255 104.617C180.624 104.987 181.085 105.172 181.593 105.172C182.1 105.172 182.562 104.987 182.931 104.617C183.669 103.877 183.669 102.675 182.931 101.936L178.548 97.5433C177.81 96.8036 176.61 96.8036 175.872 97.5433C175.134 98.2831 175.134 99.4852 175.872 100.225L176.749 101.103L174.673 103.184C171.167 100.595 166.968 98.9766 162.355 98.6067V96.9885H166.553C167.614 96.9885 168.445 96.1563 168.445 95.0929C168.445 94.0295 167.614 93.1973 166.553 93.1973H154.097C153.036 93.1973 152.206 94.0295 152.206 95.0929C152.206 96.1563 153.036 96.9885 154.097 96.9885H158.572V98.6067C146.116 99.5777 136.336 109.98 136.336 122.649ZM160.418 102.306C171.628 102.306 180.762 111.46 180.762 122.695C180.762 133.93 171.628 143.085 160.418 143.085C149.207 143.085 140.073 133.93 140.073 122.695C140.073 111.414 149.207 102.306 160.418 102.306Z" fill="#333333"/>
<path d="M140.671 180H94.3287C93.0425 180 92 181.043 92 182.329C92 196.389 103.439 207.829 117.5 207.829C131.561 207.829 143 196.39 143 182.329C143 181.043 141.957 180 140.671 180ZM138.213 184.658C137.051 195.058 128.205 203.171 117.5 203.171C106.794 203.171 97.948 195.058 96.7863 184.658H138.213Z" fill="#333333"/>
<path d="M152.235 44.7773C147.436 41.5125 139.671 38.4764 133.889 37.5889C137.067 35.7065 137.706 35.6444 141.686 34.3268C151.886 30.9539 166.994 30.6434 166.994 30.6434C166.994 30.6434 149.162 24.4864 136.124 24.8727C132.805 24.9703 129.304 25.7536 125.926 26.8638C127.831 25.0681 129.636 23.2827 130.79 21.9414C134.319 17.8403 138.029 12.6738 138.029 12.6738C138.029 12.6738 124.358 13.1615 118.017 18.2319C115.609 20.158 113.791 22.6052 112.461 24.901C110.098 23.0876 107.49 21.4728 104.882 20.2122C91.8415 13.9072 71.0052 15.2712 71.0052 15.2712C71.0052 15.2712 86.7454 21.2365 93.8272 27.1873C96.5924 29.5112 99.3986 30.5859 101.076 33.1915C95.2777 32.3528 82.1945 32.6394 75.7723 34.2303C59.2693 38.3194 52.1582 54.7727 52.1582 54.7727C52.1582 54.7727 68.2624 47.357 90.1737 42.1542C94.9913 41.0107 100.085 40.7079 104.524 40.76C102.509 42.8571 100.307 45.5806 98.6414 48.7918C94.5881 56.6104 99.9441 75.2175 99.9441 75.2175C99.9441 75.2175 111.678 64.2139 116.459 55.3001C118.913 50.7246 119.52 46.1306 119.533 42.7407C123.885 44.0307 129.01 45.9149 132.84 47.5448C152.452 55.8928 161.835 71.1337 161.835 71.1337C161.835 71.1337 164.568 53.168 152.235 44.7773Z" fill="#899441"/>
<path d="M111.737 36.7442C111.675 36.7442 111.612 36.7432 111.55 36.7421C107.672 36.675 104.609 34.5214 104.704 31.9324C104.712 31.7082 105.051 15.9436 91.9423 9.08903C88.8849 7.49035 88.345 4.53851 90.7379 2.49481C93.1324 0.452198 97.5507 0.0914851 100.608 1.69121C119.353 11.4913 118.794 31.3304 118.762 32.1703C118.662 34.7209 115.534 36.7442 111.737 36.7442Z" fill="#A8B64F"/>
</svg>
